<svg width="24" height="24" viewBox="0 0 24 24" fill="none" xmlns="http://www.w3.org/2000/svg">
<g clip-path="url(#clip0_5_1642)">
<path d="M11.9985 0C5.373 0 0 5.394 0 12.048C0 17.37 3.438 21.885 8.208 23.4795C8.808 23.5905 9.027 23.2185 9.027 22.899C9.027 22.6125 9.0165 21.855 9.0105 20.85C5.673 21.5775 4.968 19.2345 4.968 19.2345C4.4235 17.8425 3.636 17.472 3.636 17.472C2.5455 16.725 3.717 16.74 3.717 16.74C4.9215 16.8255 5.5545 17.982 5.5545 17.982C6.6255 19.8225 8.364 19.2915 9.048 18.9825C9.156 18.204 9.4665 17.673 9.81 17.3715C7.146 17.067 4.344 16.0335 4.344 11.418C4.344 10.1025 4.812 9.027 5.58 8.184C5.4555 7.8795 5.0445 6.654 5.697 4.9965C5.697 4.9965 6.705 4.6725 8.997 6.231C9.954 5.964 10.98 5.8305 12.0015 5.826C13.02 5.832 14.0475 5.964 15.006 6.2325C17.2965 4.674 18.303 4.998 18.303 4.998C18.957 6.657 18.546 7.881 18.423 8.1855C19.1925 9.0285 19.656 10.104 19.656 11.4195C19.656 16.047 16.851 17.0655 14.178 17.364C14.6085 17.736 14.9925 18.471 14.9925 19.5945C14.9925 21.2055 14.9775 22.5045 14.9775 22.899C14.9775 23.2215 15.1935 23.5965 15.8025 23.478C20.565 21.882 24 17.3685 24 12.048C24 5.394 18.627 0 11.9985 0Z" fill="white"/>
</g>
<defs>
<clipPath id="clip0_5_1642">
<rect width="24" height="24" fill="white"/>
</clipPath>
</defs>
</svg>
