<svg width="24" height="24" viewBox="0 0 24 24" fill="none" xmlns="http://www.w3.org/2000/svg">
<g clip-path="url(#clip0_5_1641)">
<path d="M1.49982 1.6327C-0.386182 3.59134 -0.000182211 5.67195 -0.000182211 11.9928C-0.000182211 17.2418 -0.916182 22.5038 3.87782 23.7426C5.37482 24.1275 18.6388 24.1275 20.1338 23.7406C22.1298 23.2257 23.7538 21.607 23.9758 18.7845C24.0068 18.3906 24.0068 5.60196 23.9748 5.20004C23.7388 2.1936 21.8878 0.460922 19.4488 0.109988C18.8898 0.0290033 18.7778 0.00500776 15.9098 8.69483e-06C5.73682 0.00500776 3.50682 -0.447908 1.49982 1.6327Z" fill="url(#paint0_linear_5_1641)"/>
<path d="M11.9979 3.13905C8.36689 3.13905 4.91889 2.81605 3.60189 6.19605C3.05789 7.59205 3.13689 9.40505 3.13689 12.001C3.13689 14.279 3.06389 16.42 3.60189 17.805C4.91589 21.187 8.39189 20.863 11.9959 20.863C15.4729 20.863 19.0579 21.225 20.3909 17.805C20.9359 16.395 20.8559 14.609 20.8559 12.001C20.8559 8.53905 21.0469 6.30405 19.3679 4.62605C17.6679 2.92605 15.3689 3.13905 11.9939 3.13905H11.9979ZM11.2039 4.73605C18.7779 4.72405 19.7419 3.88205 19.2099 15.579C19.0209 19.716 15.8709 19.262 11.9989 19.262C4.93889 19.262 4.73589 19.06 4.73589 11.997C4.73589 4.85205 5.29589 4.74005 11.2039 4.73405V4.73605ZM16.7279 6.20705C16.1409 6.20705 15.6649 6.68305 15.6649 7.27005C15.6649 7.85705 16.1409 8.33305 16.7279 8.33305C17.3149 8.33305 17.7909 7.85705 17.7909 7.27005C17.7909 6.68305 17.3149 6.20705 16.7279 6.20705ZM11.9979 7.45005C9.48489 7.45005 7.44789 9.48805 7.44789 12.001C7.44789 14.514 9.48489 16.551 11.9979 16.551C14.5109 16.551 16.5469 14.514 16.5469 12.001C16.5469 9.48805 14.5109 7.45005 11.9979 7.45005ZM11.9979 9.04705C15.9029 9.04705 15.9079 14.955 11.9979 14.955C8.09389 14.955 8.08789 9.04705 11.9979 9.04705Z" fill="white"/>
</g>
<defs>
<linearGradient id="paint0_linear_5_1641" x1="1.54584" y1="22.4629" x2="23.8477" y2="3.15726" gradientUnits="userSpaceOnUse">
<stop stop-color="#FFDD55"/>
<stop offset="0.5" stop-color="#FF543E"/>
<stop offset="1" stop-color="#C837AB"/>
</linearGradient>
<clipPath id="clip0_5_1641">
<rect width="24" height="24" fill="white"/>
</clipPath>
</defs>
</svg>
