<svg width="26" height="20" viewBox="0 0 26 20" fill="none" xmlns="http://www.w3.org/2000/svg">
<path fill-rule="evenodd" clip-rule="evenodd" d="M13.0003 9.81125L0.205068 3.41445C0.252434 2.59916 0.609721 1.83284 1.20375 1.27242C1.79778 0.712 2.5836 0.399905 3.40027 0.400055H22.6003C23.4169 0.399905 24.2028 0.712 24.7968 1.27242C25.3908 1.83284 25.7481 2.59916 25.7955 3.41445L13.0003 9.81125ZM12.9999 13.3888L25.7999 6.98876V16.4C25.7999 17.2487 25.4627 18.0626 24.8626 18.6627C24.2625 19.2628 23.4486 19.6 22.5999 19.6H3.39986C2.55117 19.6 1.73723 19.2628 1.13712 18.6627C0.537001 18.0626 0.19986 17.2487 0.19986 16.4V6.98876L12.9999 13.3888Z" fill="#0C0B0B"/>
</svg>
